<svg xmlns="http://www.w3.org/2000/svg" viewBox="0 0 116.73 38.85"><defs><style>.cls-1{fill:#1d1d1b;}.cls-2{fill:#3c3c3b;}.cls-3{fill:none;}.cls-3,.cls-4{stroke:#3c3c3b;stroke-miterlimit:10;}.cls-4{fill:#ededed;}</style></defs><g id="Слой_2" data-name="Слой 2"><g id="Слой_1-2" data-name="Слой 1"><path class="cls-1" d="M3.05,16.4V13.25a.48.48,0,0,0,0-.2L0,8H.76c.83,1.43,2.3,3.91,2.66,4.54C3.78,11.91,5.25,9.46,6.15,8h.72L3.74,13.1a.45.45,0,0,0,0,.18V16.4Z" transform="translate(0)"/><path class="cls-1" d="M14.85,12.14c0,2.29-1.22,4.38-3.81,4.38-2.37,0-3.74-1.91-3.74-4.32s1.33-4.32,3.82-4.32C13.42,7.88,14.85,9.7,14.85,12.14ZM8,12.17c0,1.93,1.07,3.75,3.08,3.75,2.17,0,3.09-1.78,3.09-3.77s-1-3.67-3.06-3.67S8,10.27,8,12.17Z" transform="translate(0)"/><path class="cls-1" d="M17.39,8v5.09c0,2.23,1.26,2.81,2.44,2.81,1.41,0,2.45-.59,2.45-2.81V8h.66v5.05c0,2.63-1.39,3.45-3.13,3.45s-3.1-.9-3.1-3.34V8Z" transform="translate(0)"/><path class="cls-1" d="M26,12.48V16.4h-.66V8h3c1.65,0,2.53.89,2.53,2.21a1.91,1.91,0,0,1-1.58,2c.87.2,1.44.77,1.44,2.19v.33a5.77,5.77,0,0,0,.11,1.7h-.66A5.79,5.79,0,0,1,30,14.65v-.22c0-1.38-.41-1.95-2-1.95Zm0-.6h2c1.48,0,2.16-.55,2.16-1.66s-.67-1.62-2-1.62H26Z" transform="translate(0)"/><path class="cls-1" d="M36,8h2.78a3.79,3.79,0,0,1,3.9,4.13c0,2.51-1.56,4.27-3.91,4.27H36Zm.65,7.8h2c2.21,0,3.31-1.56,3.31-3.63,0-1.85-1-3.57-3.31-3.57h-2Z" transform="translate(0)"/><path class="cls-1" d="M49.41,12.27H45.13V15.8h4.69l-.1.6H44.48V8h5.15v.6h-4.5v3.07h4.28Z" transform="translate(0)"/><path class="cls-1" d="M51.61,14.14A2.16,2.16,0,0,0,54,15.92c1.54,0,2.13-.77,2.13-1.68s-.42-1.53-2.27-2-2.54-1-2.54-2.23.8-2.14,2.6-2.14A2.47,2.47,0,0,1,56.64,10H56a1.87,1.87,0,0,0-2.09-1.55C52.65,8.48,52,9.05,52,10s.56,1.29,2.1,1.67c2.37.59,2.71,1.54,2.71,2.54,0,1.24-.9,2.31-2.84,2.31a2.69,2.69,0,0,1-3-2.36Z" transform="translate(0)"/><path class="cls-1" d="M59.29,8v8.4h-.65V8Z" transform="translate(0)"/><path class="cls-1" d="M68.12,16.4h-.54a6.19,6.19,0,0,1-.08-1.34,2.74,2.74,0,0,1-2.72,1.44c-2.41,0-3.64-1.84-3.64-4.23s1.32-4.39,3.78-4.39a3,3,0,0,1,3.27,2.5h-.65a2.49,2.49,0,0,0-2.65-1.9c-2.1,0-3.06,1.64-3.06,3.76,0,1.92.93,3.66,3,3.66s2.69-1.37,2.69-3.23v-.1H64.78V12h3.34Z" transform="translate(0)"/><path class="cls-1" d="M70.29,16.4V8h1c1.31,2,4.38,6.71,4.91,7.62h0c-.07-1.21-.06-2.45-.06-3.81V8h.66v8.4h-.89l-5-7.75h0C71,9.76,71,11,71,12.5v3.9Z" transform="translate(0)"/><path class="cls-1" d="M78.6,17.48v8.4H78v-8.4Z" transform="translate(0)"/><path class="cls-1" d="M81,23.63a2.16,2.16,0,0,0,2.37,1.77c1.54,0,2.13-.77,2.13-1.68s-.42-1.53-2.27-2-2.54-1-2.54-2.23.8-2.13,2.6-2.13A2.46,2.46,0,0,1,86,19.51h-.68A1.88,1.88,0,0,0,83.26,18c-1.21,0-1.87.57-1.87,1.5s.56,1.29,2.1,1.67c2.36.59,2.71,1.54,2.71,2.54,0,1.24-.9,2.31-2.84,2.31a2.69,2.69,0,0,1-3-2.35Z" transform="translate(0)"/><path class="cls-2" d="M87.38,28H88v3.66h5V28h.64v8.4h-.64V32.21H88v4.14h-.65Z" transform="translate(0)"/><path class="cls-2" d="M101.12,32.22H96.84v3.53h4.69l-.1.6H96.19V28h5.14v.6H96.84v3.07h4.28Z" transform="translate(0)"/><path class="cls-2" d="M103.85,32.42v3.93h-.66V28h3c1.65,0,2.53.89,2.53,2.21a1.9,1.9,0,0,1-1.57,2c.86.21,1.43.77,1.43,2.2v.32a5.84,5.84,0,0,0,.11,1.71H108a5.82,5.82,0,0,1-.12-1.75v-.22c0-1.38-.4-2-2-2Zm0-.6h2c1.48,0,2.16-.55,2.16-1.65s-.67-1.62-2-1.62h-2.2Z" transform="translate(0)"/><path class="cls-2" d="M115.71,32.22h-4.28v3.53h4.69l-.1.6h-5.24V28h5.15v.6h-4.5v3.07h4.28Z" transform="translate(0)"/><line class="cls-3" x1="86.21" y1="38.35" x2="116.73" y2="38.35"/><rect class="cls-4" x="94.11" y="0.5" width="15.66" height="24.12"/><path class="cls-1" d="M7,23.74h4.5c2.31,0,3.89,1.28,3.89,3.51s-1.57,3.6-4,3.6H8v5.5H7ZM8,30h3.48c2,0,2.88-1.08,2.88-2.66a2.53,2.53,0,0,0-2.81-2.65H8Z" transform="translate(0)"/><path class="cls-1" d="M28.69,30c0,3.44-1.84,6.58-5.72,6.58-3.55,0-5.62-2.87-5.62-6.49s2-6.48,5.74-6.48C26.55,23.56,28.69,26.28,28.69,30Zm-10.3,0c0,2.9,1.61,5.64,4.63,5.64,3.26,0,4.63-2.67,4.63-5.66s-1.55-5.51-4.59-5.51C19.81,24.46,18.39,27.15,18.39,30Z" transform="translate(0)"/><path class="cls-1" d="M31.5,33a3.23,3.23,0,0,0,3.56,2.67c2.31,0,3.19-1.16,3.19-2.53s-.63-2.3-3.4-3S31,28.59,31,26.77c0-1.66,1.2-3.21,3.91-3.21s3.94,1.69,4.1,3.23H38c-.29-1.36-1.17-2.33-3.15-2.33-1.82,0-2.81.85-2.81,2.25s.83,1.93,3.15,2.51c3.55.88,4.07,2.3,4.07,3.81,0,1.86-1.35,3.46-4.26,3.46-3.16,0-4.31-1.84-4.54-3.53Z" transform="translate(0)"/><path class="cls-1" d="M44.55,24.64H40.32v-.9h9.47v.9H45.54V36.35h-1Z" transform="translate(0)"/><path class="cls-1" d="M59.06,30.15H52.63v5.3h7l-.15.9H51.66V23.74h7.72v.9H52.63v4.61h6.43Z" transform="translate(0)"/><path class="cls-1" d="M63.14,30.46v5.89h-1V23.74h4.52c2.48,0,3.8,1.33,3.8,3.32a2.86,2.86,0,0,1-2.36,3c1.3.3,2.16,1.15,2.16,3.29v.49a8.58,8.58,0,0,0,.16,2.56h-1a8.56,8.56,0,0,1-.18-2.63v-.33c0-2.07-.61-2.93-3-2.93Zm0-.9h3c2.22,0,3.24-.83,3.24-2.49s-1-2.43-3-2.43H63.14Z" transform="translate(0)"/><rect class="cls-2" x="97.75" y="8.36" width="8.39" height="8.39"/></g></g></svg>